<?xml version="1.0" encoding="UTF-8"?>
<svg width="320px" height="320px" viewBox="0 0 320 320" version="1.1" xmlns="http://www.w3.org/2000/svg" xmlns:xlink="http://www.w3.org/1999/xlink">
    <title>Untitled</title>
    <g id="Page-1" stroke="none" stroke-width="1" fill="none" fill-rule="evenodd">
        <g id="coin-head" transform="translate(0.4, 0.4)" fill="#000000" fill-rule="nonzero">
            <path d="M160.16,282.8 C160.16,278.3195 163.5194,274.4016 167.9998,273.8391 C172.4803,273.28051 176.3982,277.1985 176.9607,281.6789 C177.51929,286.1594 173.6013,290.0773 169.1209,290.6398 L168.56231,290.6398 C164.08181,290.6398 160.16,287.2804 160.16,282.8 L160.16,282.8 Z M133.281,288.4016 C128.8005,287.2805 125.9998,282.8 126.5622,278.3236 C127.6833,273.8431 132.1638,271.0424 136.6402,271.6048 C141.1207,272.7259 143.9214,277.2064 143.359,281.6828 C142.80041,285.6047 138.8785,288.4016 134.9606,288.4016 C134.40201,288.96019 133.8395,288.4016 133.2809,288.4016 L133.281,288.4016 Z M193.203,278.3196 C191.5233,273.8391 193.76159,269.3587 198.2421,267.6786 C202.72261,265.9985 207.203,268.23719 208.8831,272.7177 C210.5628,277.1982 208.32451,281.6786 203.844,283.3587 C202.7229,283.917295 202.1643,283.917295 201.0432,283.917295 C197.6799,283.921196 194.3205,281.67899 193.2034,278.31959 L193.203,278.3196 Z M99.68,276.6399 C95.7581,274.4016 94.0784,269.3587 96.3206,265.4409 C98.5589,261.519 103.6018,259.8393 107.5196,262.0815 C111.4415,264.3198 113.1212,269.3627 110.879,273.2805 C109.1993,276.0813 106.3985,277.761 103.5978,277.761 C101.922,277.761 100.8009,277.20241 99.6798,276.6399 L99.68,276.6399 Z M224,264.8819 C221.1992,260.96 222.3203,255.921 225.6797,253.1199 C229.6016,250.3191 234.6406,251.4402 237.4417,254.7996 C240.2425,258.7215 239.1214,263.7605 235.2034,266.5616 C233.5237,267.6827 231.844,268.2413 230.1643,268.2413 C228.4807,268.2413 225.6799,267.1202 224.0002,264.8819 L224,264.8819 Z M70,255.921 C66.6406,252.5616 66.6406,247.5226 69.44141,244.159 C72.80081,240.7996 77.83981,240.7996 81.20341,243.60041 C84.56281,246.95981 84.56281,251.99881 81.762,255.36241 C80.0823,257.04211 77.8401,258.16321 75.6018,258.16321 C73.9221,258.159304 71.6799,257.60071 70.0002,255.92101 L70,255.921 Z M250.32,243.601 C246.3981,240.8002 245.8395,235.2026 249.1989,231.839 C251.9997,228.4796 257.5973,227.3585 260.9609,230.7179 C264.3203,233.5187 264.8828,239.1163 262.082,242.4799 C260.4023,244.7182 258.1601,245.2807 255.3632,245.2807 C253.6796,245.2807 251.4413,244.72211 250.3202,243.601 L250.32,243.601 Z M47.6,228.48 C45.3617,224.5581 46.4789,219.5191 50.4008,216.718 C54.3227,214.4797 59.3617,215.5969 62.1628,219.5188 C64.4011,223.4407 63.2839,228.4797 59.362,231.2808 C58.2409,231.83939 56.5612,232.4019 54.8815,232.4019 C51.5221,232.4019 48.7213,231.2808 47.6003,228.48 L47.6,228.48 Z M269.36,216.16 C264.8795,214.4803 263.1998,209.4412 264.8795,204.961 C266.5592,200.4808 271.5983,198.8008 276.0785,200.4805 C280.559,202.1602 282.2387,207.1993 280.559,211.6795 C279.4379,215.0389 276.0785,216.7186 272.7192,216.7186 C271.5981,216.722506 270.477,216.722506 269.3598,216.16001 L269.36,216.16 Z M33.04,195.441 C31.9189,190.9605 34.1611,186.4801 38.6416,185.363 C43.1221,184.2419 47.6025,186.4841 49.2826,190.9646 C50.4037,195.4451 48.1615,199.9255 43.681,201.6056 C43.12241,201.6056 42.0013,202.16419 41.4427,202.16419 C37.5208,201.60169 34.1575,199.36339 33.0404,195.44149 L33.04,195.441 Z M280.56,184.242 C276.0795,183.68341 272.7202,179.2029 273.2788,174.7225 C273.83739,170.242 278.3179,166.8827 282.7983,167.4413 C287.2787,167.9999 290.6381,172.4804 290.0795,176.9608 C289.52091,181.4413 285.599,184.242 281.6811,184.242 C281.1186,184.80059 281.1186,184.242 280.56,184.242 Z M28,160.16 L28,160.16 C28,155.1209 31.9219,151.1991 36.3984,151.1991 C40.8789,151.1991 44.7968,155.121 44.7968,159.5975 C44.7968,164.078 40.8749,167.9959 36.3984,167.9959 C31.9218,168.56231 28,164.6404 28,160.16 Z M273.28,143.922 C272.72141,139.4415 276.0808,134.9611 280.5612,134.4025 C285.0417,133.84391 289.5221,137.2033 290.0807,141.6837 C290.63929,146.1642 287.2799,150.6446 282.7995,151.2032 L281.6784,151.2032 C277.2018,151.2032 273.8386,147.8399 273.28,143.922 Z M38.64,134.4025 C34.1595,133.2814 31.3588,128.8009 33.0384,123.7615 C34.1595,119.281 38.64,116.4803 43.1164,118.1599 C47.5969,119.281 50.3976,124.3201 48.718,128.8009 C47.5969,132.7228 44.2375,134.9611 40.8782,134.9611 C40.31961,134.9611 39.2024,134.40251 38.6399,134.40251 L38.64,134.4025 Z M264.88,113.6795 C263.2003,109.199 264.88,104.7186 269.3605,102.4805 C273.841,100.8008 278.88,102.4805 280.5595,106.961 C282.2392,111.4415 280.5595,115.9219 276.079,118.16 C274.9579,118.718597 273.8407,118.718597 272.7196,118.718597 C269.3602,118.722496 265.9969,117.04279 264.8798,113.67949 L264.88,113.6795 Z M49.84,102.4805 C45.9181,100.2422 44.8009,95.1993 47.0392,90.7185 C49.2775,86.7966 54.879,85.6794 58.8012,87.9177 C62.7231,90.156 63.8403,95.7575 61.602,99.6797 C59.9223,102.4805 57.1215,103.6016 54.3208,103.6016 C52.6411,104.16019 51.5239,103.6016 49.8403,102.4805 L49.84,102.4805 Z M248.64,86.8005 C245.8392,83.4411 246.4017,77.8396 249.7611,75.0385 C253.1205,72.2374 258.722,72.8002 261.5231,76.1596 C264.3242,79.519 263.7614,85.1205 260.402,87.9216 C258.7223,89.0427 257.0426,89.6013 254.8004,89.6013 C252.5621,90.15989 250.3199,89.04271 248.6402,86.8005 L248.64,86.8005 Z M69.44,75.0425 C66.0806,71.6831 66.6392,66.6441 69.99859,63.2805 C73.35799,59.9211 78.95949,60.4797 81.76059,63.83909 C85.11999,67.19849 84.56139,72.79999 81.202,75.60109 C79.5223,77.28079 77.2801,77.83939 75.6004,77.83939 C73.3621,77.83939 71.1199,77.2808 69.4402,75.04249 L69.44,75.0425 Z M225.68,65.523 C221.7581,62.7222 221.1995,57.6832 223.4417,53.761 C226.2425,49.8391 231.2815,49.2805 235.2037,51.5227 C239.1256,54.3235 239.6842,59.3625 237.442,63.2847 C235.7623,65.523 232.9615,66.6441 230.7232,66.6441 C229.0435,67.20269 227.3638,66.640193 225.6802,65.523 L225.68,65.523 Z M95.2,54.32 C92.9617,50.3981 94.64141,45.3591 98.5594,43.121 C102.4813,40.8827 107.5203,42.56241 109.7584,46.4804 C111.9967,50.4023 110.31699,55.4413 106.399,57.6794 C105.2779,58.23799 103.5982,58.8005 102.4771,58.8005 C99.6763,58.8005 96.8794,57.1208 95.1998,54.32 L95.2,54.32 Z M197.68,51.5231 C193.1995,49.8434 190.9612,45.3629 192.6409,40.8821 C194.3206,36.4016 198.8011,34.1633 203.2819,35.843 C207.7624,37.5227 210.0007,42.0032 208.321,46.484 C207.1999,49.8434 203.8405,52.0856 200.4812,52.0856 C199.92261,52.081694 198.8015,51.5231 197.6804,51.5231 L197.68,51.5231 Z M126,40.8821 C124.8789,36.4016 127.6797,31.9212 132.7188,30.8041 C137.1993,29.683 141.6797,33.0424 142.7968,37.5229 C143.9179,42.0034 140.5585,46.4838 136.078,47.6009 L134.3983,47.6009 C130.4803,47.6009 127.121,44.8001 125.9999,40.8821 L126,40.8821 Z M167.441,44.8001 C162.9605,44.24151 159.0426,40.3196 159.6012,35.8392 C159.6012,31.3587 164.0817,27.9994 168.5621,27.9994 C173.0426,27.9994 176.9605,32.4799 176.4019,36.9603 C175.8394,41.4408 172.48,44.8001 167.441,44.8001 Z" id="Shape"></path>
            <path d="M159.6,319.2 C71.678,319.2 0,247.52 0,159.6 C0,71.68 71.68,0 159.6,0 C247.52,0 319.2,71.68 319.2,159.6 C319.2,247.52 247.52,319.2 159.6,319.2 Z M159.6,16.8 C80.639,16.8 16.8,80.64 16.8,159.6 C16.8,238.56 80.64,302.4 159.6,302.4 C238.56,302.4 302.4,238.56 302.4,159.6 C302.4,80.64 238.56,16.8 159.6,16.8 Z" id="Shape"></path>
            <path d="M217.28,170.8 C227.921,147.28 231.28,123.198 225.1198,106.402 C217.8386,86.8 194.8818,67.761 159.5998,70.562 C159.04121,70.562 95.7598,76.1636 94.0798,99.683 C93.52121,106.9642 98.5603,112.562 106.3998,116.484 C103.599,126.0035 103.599,134.964 104.1615,139.445 L91.8415,162.965 C90.7204,165.2033 90.7204,167.4455 91.28291,169.6838 C91.8415,171.9221 93.52121,173.6057 95.76341,174.7229 L104.16181,178.6448 C104.7204,189.8438 101.92351,202.1648 101.92351,202.1648 C100.80241,206.6453 103.04461,210.5632 107.52511,212.2428 C109.76341,212.80139 117.04461,214.4811 126.00511,214.4811 C128.24341,214.4811 131.04421,214.4811 133.28631,213.92251 C134.40741,219.52411 134.96601,234.64151 135.52461,247.52451 C135.52461,250.88391 137.76291,254.24331 141.12621,255.36431 C142.23951,254.80181 142.79811,254.80181 143.91921,254.80181 C146.15751,254.80181 148.95831,253.68071 150.63801,252.00101 C173.59901,224.56001 215.59901,213.36001 216.15801,212.80201 C218.95881,212.24342 221.19711,210.00121 221.75961,207.20041 C222.88071,204.39961 222.3182,201.59881 220.07991,199.36061 C220.07991,199.364517 209.99791,186.48161 217.27911,170.80161 L217.28,170.8 Z M161.28,86.8 C191.518,84.5617 206.081,101.359 209.44,111.999 C213.9205,124.319 211.1197,144.479 202.1588,163.519 C202.1588,164.07759 202.1588,164.07759 201.60021,164.6401 L195.99861,162.4018 C198.79941,156.2416 199.35801,150.0818 197.67831,144.4798 C195.99861,137.761 190.95951,132.7178 184.79931,131.0388 C179.19771,129.9177 170.79931,130.48021 160.15831,140.5583 C160.7169,135.5192 160.15831,128.7963 156.79891,123.1993 C155.11921,120.3985 152.87701,117.0391 148.95911,114.2384 C156.24031,112.5587 164.63911,110.879 173.03711,112.0001 C177.51761,112.55869 181.99801,109.1993 182.55661,104.7189 C183.1152,100.2384 179.75581,95.758 175.27541,95.1994 C150.63441,92.3986 126.55641,104.7189 125.43541,105.2774 C125.43541,105.2774 124.87682,105.2774 124.87682,105.83599 C117.59562,103.59769 113.67782,101.91409 111.99782,100.79689 C118.72052,95.76169 140.55982,88.48089 161.27882,86.80089 L161.28,86.8 Z M151.7605,226.8005 C151.20191,217.8391 150.6394,212.8 149.5222,208.878 C156.8034,205.5186 163.5222,200.4796 168.0022,192.64 C170.2405,188.7181 168.56079,183.6791 164.0803,181.441 C160.1584,179.2027 155.1194,180.88241 152.8813,185.3629 C146.7211,197.1249 129.9203,197.6829 119.8423,196.5619 C120.9634,189.8431 121.522,179.7609 120.40089,170.7999 C119.8423,167.9991 118.16259,165.7608 115.36179,164.6397 L110.88129,162.4014 L115.36179,154.003 L127.12379,154.003 C131.60429,154.003 135.52219,150.0811 135.52219,145.6046 C135.52219,141.1241 131.60029,137.2062 127.12379,137.2062 L120.96359,137.2062 C120.96359,133.8468 120.96359,128.2453 122.64329,122.0852 C126.00269,122.64379 128.80349,123.7649 132.16279,124.3235 C137.20189,125.4446 140.56119,127.6829 142.80379,131.0423 C145.60459,136.0814 143.92489,142.8043 142.80379,145.0423 C141.12409,149.5228 143.36238,154.0032 147.28429,155.6833 L158.48329,160.1638 C161.84269,161.2849 165.76449,160.72239 168.00279,157.9255 C175.84259,148.9646 180.32279,147.8475 180.88179,147.8475 C180.88179,147.8475 181.44038,148.9686 181.44038,151.2069 C181.44038,153.4452 180.31928,160.1678 171.92088,167.4449 C168.56148,170.2457 167.99898,175.8433 171.36229,179.2069 C173.04199,180.8866 175.28419,182.0077 177.52249,182.0077 C179.20219,182.0077 181.44439,181.44911 183.12409,179.7694 C184.24519,178.6483 185.36239,178.0897 185.92489,176.9686 L197.12389,180.8905 C197.12389,188.1717 198.24499,194.8905 200.48329,199.3705 C189.28029,203.8393 169.12029,212.8005 151.76029,226.8005 L151.7605,226.8005 Z" id="Shape"></path>
        </g>
    </g>
</svg>