<?xml version="1.0" encoding="UTF-8"?>
<svg width="320px" height="320px" viewBox="0 0 320 320" version="1.1" xmlns="http://www.w3.org/2000/svg" xmlns:xlink="http://www.w3.org/1999/xlink">
    <title>Untitled</title>
    <g id="Page-1" stroke="none" stroke-width="1" fill="none" fill-rule="evenodd">
        <g id="coin-tail" transform="translate(0.4, 0.4)" fill="#000000" fill-rule="nonzero">
            <path d="M123.76,109.2 C127.6819,111.4383 132.7209,110.3211 135.522,106.3992 C135.522,105.84061 140.0025,99.118 148.401,99.118 C152.3229,99.118 155.1198,100.7977 159.6,103.5985 C164.0802,106.3993 169.678,110.3173 176.959,110.3173 L178.6387,110.3173 C190.9587,110.3173 200.4787,100.7978 204.4007,94.6373 C206.639,90.7154 205.5218,85.6764 202.1624,82.8753 C198.2405,80.637 193.2015,81.7542 190.4004,85.1136 C190.4004,85.1136 184.7988,93.512 178.0804,92.9534 L177.52181,92.9534 C175.28351,92.9534 173.04131,91.8323 169.12341,89.0315 C164.64291,85.6721 157.92441,81.1917 148.40441,81.1917 C134.40441,81.1917 124.88441,91.2697 121.52541,96.8717 C118.72071,101.9186 119.83791,106.9577 123.75981,109.1997 L123.76,109.2 Z" id="Path"></path>
            <path d="M248.64,105.28 C248.08141,104.1589 247.5189,103.6003 246.4017,102.4792 C245.84311,101.92061 245.2806,101.3581 244.1634,101.3581 L243.60481,101.3581 L241.92511,101.3581 L241.36652,101.3581 L239.12822,101.3581 C238.56963,101.3581 238.00712,101.91669 237.44852,101.91669 L236.88993,101.91669 C236.33134,101.91669 236.33134,101.91669 235.76883,102.47528 L235.21024,102.47528 L234.65165,102.47528 C226.25325,107.51438 202.72965,118.15528 202.72965,133.83428 C203.28824,138.87338 199.37025,147.27528 196.56945,151.19328 C194.33115,153.99408 190.40925,154.55268 189.28825,154.55268 L188.16715,154.55268 L172.48715,154.55268 C174.72545,139.43168 174.16685,124.31468 162.96765,120.95068 C155.68645,118.71238 143.36565,114.23188 138.32665,123.18898 C136.64695,125.98978 136.64695,128.79058 137.76806,131.58738 L147.28756,135.50928 C148.40866,136.06787 148.96726,136.63038 148.96726,137.74758 C149.52585,138.86868 148.96726,140.54838 147.84616,141.66948 C147.84616,141.66948 141.12736,145.59138 138.32666,154.54848 C138.32666,155.10707 137.76807,155.10707 137.76807,155.10707 L129.92827,155.10707 L128.80717,155.10707 C127.68607,155.10707 123.76807,154.54848 121.52597,151.74767 C118.16657,148.38827 114.80717,139.42767 115.36577,134.38867 C114.80718,119.26767 91.84577,108.06867 83.44377,103.02967 L82.88518,103.02967 C82.88518,103.02967 82.32659,103.02967 81.76408,102.47108 L81.20549,102.47108 C80.6469,102.47108 80.08439,101.91249 79.52579,101.91249 L77.28749,101.91249 L76.7289,101.91249 L75.0492,101.91249 L74.49061,101.91249 C73.93202,101.91249 73.36951,102.47108 72.25231,103.03359 C71.13121,104.15469 70.57261,104.71329 70.01401,105.83439 C68.89291,108.63519 69.45542,110.87349 70.5726,113.67419 L86.8106,142.23319 C84.0098,156.79219 94.6504,185.35419 124.8886,193.19419 C125.44719,195.99499 126.0097,198.79579 127.1269,201.03399 L107.5219,209.99879 L106.96331,209.99879 L91.84231,185.35779 C89.60401,181.43589 84.00251,180.31869 80.08031,182.55699 C76.15811,184.79529 75.04121,190.39679 77.27951,194.31899 L105.27951,239.11999 C106.95921,241.92079 109.76001,243.04189 112.56071,243.04189 C114.24041,243.04189 115.36151,242.4833 117.04121,241.92079 C120.96311,239.68249 122.08031,234.08099 119.84201,230.15879 L116.48261,224.55719 L134.40461,216.71739 C134.9632,217.83849 136.08431,218.95569 136.64291,220.07679 L127.68201,231.83879 C125.44371,234.63959 125.44371,238.55759 127.12342,241.35829 C127.68201,241.91688 138.88542,259.28029 159.04542,259.28029 C179.20542,259.28029 190.96742,242.47929 191.52542,241.92129 C193.76372,239.12049 193.76372,234.64009 191.52542,231.84329 L182.56452,220.08129 C183.68562,218.96019 184.24422,217.28049 185.36532,215.60079 L203.28732,223.99919 L199.36542,229.60079 C197.12712,233.52269 198.24432,238.56169 202.16622,241.36279 C203.28732,242.48389 204.96702,242.48389 206.64672,242.48389 C209.44752,242.48389 212.24832,241.36279 213.92792,238.56199 L241.92792,193.76099 C244.16622,189.83909 243.04902,184.80009 239.12712,181.99899 C235.20522,179.76069 230.16622,180.87789 227.36512,184.79979 L211.67712,209.99879 L191.51712,200.47929 C192.07571,198.24099 192.63822,195.44019 193.19682,193.19809 C223.43482,184.79969 234.63782,156.80009 231.27482,142.23709 L247.51282,113.67809 C248.63782,110.88119 249.75892,108.08039 248.63782,105.27969 L248.64,105.28 Z M159.601,218.96 C144.48,211.1202 139.999,186.48 139.441,170.8 L179.761,170.8 C179.20241,184.8 175.2805,211.12 159.601,218.96 L159.601,218.96 Z" id="Shape"></path>
            <path d="M160.16,282.8 C160.16,278.3195 163.5194,274.4016 167.9998,273.8391 C172.4803,273.28051 176.3982,277.1985 176.9607,281.6789 C177.51929,286.1594 173.6013,290.0773 169.1209,290.6398 L168.56231,290.6398 C164.08181,290.6398 160.16,287.2804 160.16,282.8 L160.16,282.8 Z M133.281,288.4016 C128.8005,287.2805 125.9998,282.8 126.5622,278.3236 C127.6833,273.8431 132.1638,271.0424 136.6402,271.6048 C141.1207,272.7259 143.9214,277.2064 143.359,281.6828 C142.80041,285.6047 138.8785,288.4016 134.9606,288.4016 C134.40201,288.96019 133.8395,288.4016 133.2809,288.4016 L133.281,288.4016 Z M193.203,278.3196 C191.5233,273.8391 193.76159,269.3587 198.2421,267.6786 C202.72261,265.9985 207.203,268.23719 208.8831,272.7177 C210.5628,277.1982 208.32451,281.6786 203.844,283.3587 C202.7229,283.917295 202.1643,283.917295 201.0432,283.917295 C197.6799,283.921196 194.3205,281.67899 193.2034,278.31959 L193.203,278.3196 Z M99.68,276.6399 C95.7581,274.4016 94.0784,269.3587 96.3206,265.4409 C98.5589,261.519 103.6018,259.8393 107.5196,262.0815 C111.4415,264.3198 113.1212,269.3627 110.879,273.2805 C109.1993,276.0813 106.3985,277.761 103.5978,277.761 C101.922,277.761 100.8009,277.20241 99.6798,276.6399 L99.68,276.6399 Z M224,264.8819 C221.1992,260.96 222.3203,255.921 225.6797,253.1199 C229.6016,250.3191 234.6406,251.4402 237.4417,254.7996 C240.2425,258.7215 239.1214,263.7605 235.2034,266.5616 C233.5237,267.6827 231.844,268.2413 230.1643,268.2413 C228.4807,268.2413 225.6799,267.1202 224.0002,264.8819 L224,264.8819 Z M70,255.921 C66.6406,252.5616 66.6406,247.5226 69.44141,244.159 C72.80081,240.7996 77.83981,240.7996 81.20341,243.60041 C84.56281,246.95981 84.56281,251.99881 81.762,255.36241 C80.0823,257.04211 77.8401,258.16321 75.6018,258.16321 C73.9221,258.159304 71.6799,257.60071 70.0002,255.92101 L70,255.921 Z M250.32,243.601 C246.3981,240.8002 245.8395,235.2026 249.1989,231.839 C251.9997,228.4796 257.5973,227.3585 260.9609,230.7179 C264.3203,233.5187 264.8828,239.1163 262.082,242.4799 C260.4023,244.7182 258.1601,245.2807 255.3632,245.2807 C253.6796,245.2807 251.4413,244.72211 250.3202,243.601 L250.32,243.601 Z M47.6,228.48 C45.3617,224.5581 46.4789,219.5191 50.4008,216.718 C54.3227,214.4797 59.3617,215.5969 62.1628,219.5188 C64.4011,223.4407 63.2839,228.4797 59.362,231.2808 C58.2409,231.83939 56.5612,232.4019 54.8815,232.4019 C51.5221,232.4019 48.7213,231.2808 47.6003,228.48 L47.6,228.48 Z M269.36,216.16 C264.8795,214.4803 263.1998,209.4412 264.8795,204.961 C266.5592,200.4808 271.5983,198.8008 276.0785,200.4805 C280.559,202.1602 282.2387,207.1993 280.559,211.6795 C279.4379,215.0389 276.0785,216.7186 272.7192,216.7186 C271.5981,216.722506 270.477,216.722506 269.3598,216.16001 L269.36,216.16 Z M33.04,195.441 C31.9189,190.9605 34.1611,186.4801 38.6416,185.363 C43.1221,184.2419 47.6025,186.4841 49.2826,190.9646 C50.4037,195.4451 48.1615,199.9255 43.681,201.6056 C43.12241,201.6056 42.0013,202.16419 41.4427,202.16419 C37.5208,201.60169 34.1575,199.36339 33.0404,195.44149 L33.04,195.441 Z M280.56,184.242 C276.0795,183.68341 272.7202,179.2029 273.2788,174.7225 C273.83739,170.242 278.3179,166.8827 282.7983,167.4413 C287.2787,167.9999 290.6381,172.4804 290.0795,176.9608 C289.52091,181.4413 285.599,184.242 281.6811,184.242 C281.1186,184.80059 281.1186,184.242 280.56,184.242 Z M28,160.16 L28,160.16 C28,155.1209 31.9219,151.1991 36.3984,151.1991 C40.8789,151.1991 44.7968,155.121 44.7968,159.5975 C44.7968,164.078 40.8749,167.9959 36.3984,167.9959 C31.9218,168.56231 28,164.6404 28,160.16 Z M273.28,143.922 C272.72141,139.4415 276.0808,134.9611 280.5612,134.4025 C285.0417,133.84391 289.5221,137.2033 290.0807,141.6837 C290.63929,146.1642 287.2799,150.6446 282.7995,151.2032 L281.6784,151.2032 C277.2018,151.2032 273.8386,147.8399 273.28,143.922 Z M38.64,134.4025 C34.1595,133.2814 31.3588,128.8009 33.0384,123.7615 C34.1595,119.281 38.64,116.4803 43.1164,118.1599 C47.5969,119.281 50.3976,124.3201 48.718,128.8009 C47.5969,132.7228 44.2375,134.9611 40.8782,134.9611 C40.31961,134.9611 39.2024,134.40251 38.6399,134.40251 L38.64,134.4025 Z M264.88,113.6795 C263.2003,109.199 264.88,104.7186 269.3605,102.4805 C273.841,100.8008 278.88,102.4805 280.5595,106.961 C282.2392,111.4415 280.5595,115.9219 276.079,118.16 C274.9579,118.718597 273.8407,118.718597 272.7196,118.718597 C269.3602,118.722496 265.9969,117.04279 264.8798,113.67949 L264.88,113.6795 Z M49.84,102.4805 C45.9181,100.2422 44.8009,95.1993 47.0392,90.7185 C49.2775,86.7966 54.879,85.6794 58.8012,87.9177 C62.7231,90.156 63.8403,95.7575 61.602,99.6797 C59.9223,102.4805 57.1215,103.6016 54.3208,103.6016 C52.6411,104.16019 51.5239,103.6016 49.8403,102.4805 L49.84,102.4805 Z M248.64,86.8005 C245.8392,83.4411 246.4017,77.8396 249.7611,75.0385 C253.1205,72.2374 258.722,72.8002 261.5231,76.1596 C264.3242,79.519 263.7614,85.1205 260.402,87.9216 C258.7223,89.0427 257.0426,89.6013 254.8004,89.6013 C252.5621,90.15989 250.3199,89.04271 248.6402,86.8005 L248.64,86.8005 Z M69.44,75.0425 C66.0806,71.6831 66.6392,66.6441 69.99859,63.2805 C73.35799,59.9211 78.95949,60.4797 81.76059,63.83909 C85.11999,67.19849 84.56139,72.79999 81.202,75.60109 C79.5223,77.28079 77.2801,77.83939 75.6004,77.83939 C73.3621,77.83939 71.1199,77.2808 69.4402,75.04249 L69.44,75.0425 Z M225.68,65.523 C221.7581,62.7222 221.1995,57.6832 223.4417,53.761 C226.2425,49.8391 231.2815,49.2805 235.2037,51.5227 C239.1256,54.3235 239.6842,59.3625 237.442,63.2847 C235.7623,65.523 232.9615,66.6441 230.7232,66.6441 C229.0435,67.20269 227.3638,66.640193 225.6802,65.523 L225.68,65.523 Z M95.2,54.32 C92.9617,50.3981 94.64141,45.3591 98.5594,43.121 C102.4813,40.8827 107.5203,42.56241 109.7584,46.4804 C111.9967,50.4023 110.31699,55.4413 106.399,57.6794 C105.2779,58.23799 103.5982,58.8005 102.4771,58.8005 C99.6763,58.8005 96.8794,57.1208 95.1998,54.32 L95.2,54.32 Z M197.68,51.5231 C193.1995,49.8434 190.9612,45.3629 192.6409,40.8821 C194.3206,36.4016 198.8011,34.1633 203.2819,35.843 C207.7624,37.5227 210.0007,42.0032 208.321,46.484 C207.1999,49.8434 203.8405,52.0856 200.4812,52.0856 C199.92261,52.081694 198.8015,51.5231 197.6804,51.5231 L197.68,51.5231 Z M126,40.8821 C124.8789,36.4016 127.6797,31.9212 132.7188,30.8041 C137.1993,29.683 141.6797,33.0424 142.7968,37.5229 C143.9179,42.0034 140.5585,46.4838 136.078,47.6009 L134.3983,47.6009 C130.4803,47.6009 127.121,44.8001 125.9999,40.8821 L126,40.8821 Z M167.441,44.8001 C162.9605,44.24151 159.0426,40.3196 159.6012,35.8392 C159.6012,31.3587 164.0817,27.9994 168.5621,27.9994 C173.0426,27.9994 176.9605,32.4799 176.4019,36.9603 C175.8394,41.4408 172.48,44.8001 167.441,44.8001 Z" id="Shape"></path>
            <path d="M159.6,319.2 C71.678,319.2 0,247.52 0,159.6 C0,71.68 71.68,0 159.6,0 C247.52,0 319.2,71.68 319.2,159.6 C319.2,247.52 247.52,319.2 159.6,319.2 Z M159.6,16.8 C80.639,16.8 16.8,80.64 16.8,159.6 C16.8,238.56 80.64,302.4 159.6,302.4 C238.56,302.4 302.4,238.56 302.4,159.6 C302.4,80.64 238.56,16.8 159.6,16.8 Z" id="Shape"></path>
        </g>
    </g>
</svg>